<?xml version="1.0" standalone="no"?>
<!DOCTYPE svg PUBLIC "-//W3C//DTD SVG 20010904//EN"
 "http://www.w3.org/TR/2001/REC-SVG-20010904/DTD/svg10.dtd">
<svg version="1.0" xmlns="http://www.w3.org/2000/svg"
 width="180.000000pt" height="180.000000pt" viewBox="0 0 180.000000 180.000000"
 preserveAspectRatio="xMidYMid meet">
<metadata>
Created by potrace 1.14, written by Peter Selinger 2001-2017
</metadata>
<g transform="translate(0.000000,180.000000) scale(0.100000,-0.100000)"
fill="#000000" stroke="none">
<path d="M115 1781 c-38 -17 -93 -70 -96 -92 -1 -5 -2 -13 -3 -18 0 -5 -4 -13
-9 -17 -12 -13 -8 -1487 5 -1526 13 -39 51 -83 93 -106 27 -15 103 -17 783
-20 823 -2 792 -4 855 56 56 54 57 63 57 797 l0 672 -25 37 c-44 65 -215 223
-248 230 -17 3 -333 6 -701 6 -627 -1 -674 -2 -711 -19z"/>
</g>
</svg>
